<?xml version="1.0" encoding="UTF-8"?>
<svg width="120px" height="120px" viewBox="0 0 120 120" version="1.1" xmlns="http://www.w3.org/2000/svg" xmlns:xlink="http://www.w3.org/1999/xlink">
    <title>2F7A9FA3-84BE-499F-A81B-4794BA7867DE</title>
    <g id="Writer's-profile" stroke="none" stroke-width="1" fill="none" fill-rule="evenodd">
        <g id="Team-Page" transform="translate(-732.000000, -861.000000)">
            <g id="Member-07" transform="translate(662.000000, 845.000000)">
                <g id="doctor_icon" transform="translate(70.000000, 16.000000)">
                    <circle id="Oval" fill="#F3F3F3" cx="60" cy="60" r="60"></circle>
                    <g id="Icon" opacity="0.8" transform="translate(30.133296, 28.000000)" fill="#1D8387">
                        <g id="Group-3">
                            <path d="M6.66702155,47.9452642 C9.27713279,46.6411725 12.1516699,45.8676629 14.9045011,44.8499101 C16.4691669,44.2715318 18.0811142,43.7900615 19.5792357,43.0713641 C21.5492962,42.1259634 22.6582213,40.6495422 22.5697875,38.2281588 C22.5001787,36.32201 22.3802239,34.7320179 20.8002354,33.3187403 C19.3169988,31.9918468 18.3928215,30.1457721 17.8902372,28.1514853 C17.8258819,27.8954028 17.5535758,27.6270423 17.3075371,27.491985 C15.1798718,26.3211966 14.441318,22.7649816 15.8890935,20.8018281 C16.0804083,20.5426761 16.0869752,19.9998161 15.9595779,19.6748894 C14.3962255,15.6766689 14.7403294,11.7069507 16.336954,7.86351975 C18.3871302,2.92866846 22.4113071,0.582706633 27.5505382,0.0784344642 C29.2618641,-0.0895100928 31.0397342,0.0266917548 32.7440554,0.289790277 C34.5508198,0.568674711 36.0204849,1.60791388 37.1596176,3.08433509 C37.3767621,3.36541201 37.7532625,3.66797531 38.0798548,3.69735464 C40.7626394,3.93808979 42.5203711,5.46186874 43.5649409,7.79423714 C45.2832715,11.6284596 45.5906009,15.5837074 44.0841613,19.5744735 C43.8547587,20.1813541 43.8490674,20.5396066 44.2890476,21.08729 C45.5989189,22.7185008 44.6607323,26.4224895 42.7935528,27.4485738 C42.493228,27.6134489 42.174516,27.9445145 42.0847688,28.2619867 C41.3772982,30.7565992 39.9185779,32.7548325 38.135892,34.5750358 C37.8044841,34.9135559 37.5820862,35.4647473 37.5251733,35.9435866 C37.4271081,36.7697159 37.5724547,37.6243476 37.4835831,38.452231 C37.2554939,40.5780671 38.3158242,42.011954 40.0595467,42.8442223 C41.948178,43.7457733 43.9747135,44.3596698 45.9438984,45.0910837 C48.3232937,45.9750948 50.8025053,46.6534504 53.0663237,47.7707422 C57.9269613,50.1706485 59.9514672,54.3254677 59.9998074,59.6510271 L60.0001671,60 C60.0001671,62.209139 46.5687096,64 30.0001671,64 C13.4316246,64 0.000167058199,62.209139 0.000167058199,60 L0.000167058199,60 C-0.0202392955,54.6525225 1.82680185,50.3631396 6.66702155,47.9452642 Z" id="Combined-Shape"></path>
                        </g>
                    </g>
                </g>
            </g>
        </g>
    </g>
</svg>