<?xml version="1.0" standalone="no"?>
<!DOCTYPE svg PUBLIC "-//W3C//DTD SVG 20010904//EN"
 "http://www.w3.org/TR/2001/REC-SVG-20010904/DTD/svg10.dtd">
<svg version="1.0" xmlns="http://www.w3.org/2000/svg"
 width="20px" height="20px" viewBox="0 0 200.000000 200.000000"
 preserveAspectRatio="xMidYMid meet">

<g transform="translate(0.000000,200.000000) scale(0.100000,-0.100000)"
fill="#128c7e" stroke="none">
<path d="M895 1990 c-90 -10 -210 -43 -300 -82 -107 -47 -201 -113 -296 -207
-137 -138 -215 -276 -266 -470 -36 -137 -36 -325 0 -462 51 -194 129 -332 266
-470 138 -137 276 -215 470 -266 137 -36 325 -36 462 0 194 51 332 129 470
266 137 138 215 276 266 470 36 137 36 325 0 462 -51 194 -129 332 -266 470
-96 95 -189 160 -300 208 -151 67 -349 98 -506 81z m594 -645 c33 -17 41 -33
41 -83 0 -33 -17 -53 -276 -313 -152 -152 -291 -285 -309 -295 -19 -10 -42
-14 -56 -11 -13 3 -95 78 -181 165 -136 137 -158 163 -158 190 0 46 38 86 84
86 33 0 47 -10 154 -117 l117 -117 245 246 c135 135 254 249 265 254 29 13 43
12 74 -5z"/>
</g>
</svg>
